<?xml version="1.0" encoding="UTF-8" standalone="no"?>
<svg width="235px" height="235px" viewBox="0 -5 240 245" version="1.1" xmlns="http://www.w3.org/2000/svg" xmlns:xlink="http://www.w3.org/1999/xlink">
    <!-- Generator: Sketch 3.6.1 (26313) - http://www.bohemiancoding.com/sketch -->
    <title>Coin</title>
    <desc>Created with Sketch.</desc>
    <defs></defs>
    <g id="Page-1" stroke="none" stroke-width="1" fill="none" fill-rule="evenodd">
        <g id="Coin" stroke-width="3.0" stroke="#F5FF00">
            <g id="Layer_1">
                <g id="Group">
                    <path d="M162.87,116.377 L88.586,132.845 L88.586,120.1 L161.587,103.916 C162.439,107.732 162.876,111.775 162.876,116.059 C162.877,116.166 162.871,116.27 162.87,116.377 L162.87,116.377 Z M155.42,89.11 L88.587,103.927 L88.587,66.574 L102.043,66.574 C111.357,66.574 118.116,66.93 122.321,67.641 C126.525,68.354 130.971,69.809 135.662,72.007 C140.35,74.207 144.507,77.021 148.13,80.447 C150.977,83.109 153.397,86.001 155.42,89.11 L155.42,89.11 Z M88.586,149.018 L160.414,133.094 C158.094,140.551 154.137,147.135 148.518,152.83 C145.541,155.807 142.26,158.312 138.67,160.35 C135.079,162.387 130.6,164.071 125.232,165.395 C119.862,166.721 112.328,167.385 102.625,167.385 L88.587,167.385 L88.587,149.018 L88.586,149.018 Z M182.76,111.968 C182.459,107.756 181.803,103.651 180.778,99.661 L193.781,96.777 L193.781,80.605 L174.971,84.775 C174.478,83.846 173.992,82.916 173.453,82.002 C167.113,71.265 158.574,63.13 147.838,57.6 C137.1,52.07 122.514,49.304 104.08,49.304 L69.181,49.304 L69.181,108.229 L52.4,111.949 L52.4,128.121 L69.181,124.4 L69.181,137.148 L52.4,140.867 L52.4,157.041 L69.181,153.32 L69.181,184.654 L101.266,184.654 C113.297,184.654 121.447,184.314 125.717,183.636 C129.986,182.956 134.674,181.615 139.785,179.609 C148.517,176.31 156.181,171.427 162.78,164.959 C169.247,158.686 174.229,151.408 177.722,143.129 C179.751,138.318 181.171,133.375 182.022,128.305 L193.78,125.698 L193.78,109.526 L182.76,111.968 L182.76,111.968 Z" id="Shape"></path>
                    <circle id="Oval" cx="117.353" cy="117.537" r="116.963"></circle>
                    <circle id="Oval" cx="117.353" cy="117.537" r="102.627"></circle>
                </g>
            </g>
        </g>
    </g>
</svg>