<?xml version="1.0" encoding="utf-8"?>
<!-- Generator: Adobe Illustrator 16.0.0, SVG Export Plug-In . SVG Version: 6.00 Build 0)  -->
<!DOCTYPE svg PUBLIC "-//W3C//DTD SVG 1.1//EN" "http://www.w3.org/Graphics/SVG/1.1/DTD/svg11.dtd">
<svg version="1.1" id="Layer_1" xmlns="http://www.w3.org/2000/svg" xmlns:xlink="http://www.w3.org/1999/xlink" x="0px" y="0px"
	 width="1190.55px" height="841.89px" viewBox="0 0 1190.55 841.89" enable-background="new 0 0 1190.55 841.89"
	 xml:space="preserve">
<g>
	<path fill="none" stroke="#000000" stroke-width="0.78" d="M640.87,420.377l-74.284,16.468V424.1l73.001-16.184
		c0.852,3.816,1.289,7.859,1.289,12.143C640.877,420.166,640.871,420.27,640.87,420.377z M633.42,393.11l-66.833,14.817v-37.353
		h13.456c9.314,0,16.073,0.356,20.278,1.067c4.204,0.713,8.65,2.168,13.341,4.366c4.688,2.2,8.845,5.014,12.468,8.44
		C628.977,387.109,631.397,390.001,633.42,393.11z M566.586,453.018l71.828-15.924c-2.32,7.457-6.277,14.041-11.896,19.736
		c-2.977,2.977-6.258,5.482-9.848,7.52c-3.591,2.037-8.07,3.721-13.438,5.045c-5.37,1.326-12.904,1.99-22.607,1.99h-14.038V453.018z
		 M660.76,415.968c-0.301-4.212-0.957-8.317-1.982-12.307l13.003-2.884v-16.172l-18.81,4.17c-0.493-0.929-0.979-1.859-1.518-2.773
		c-6.34-10.737-14.879-18.872-25.615-24.402c-10.738-5.53-25.324-8.296-43.758-8.296h-34.899v58.925l-16.781,3.72v16.172
		l16.781-3.721v12.748l-16.781,3.719v16.174l16.781-3.721v31.334h32.085c12.031,0,20.181-0.34,24.451-1.018
		c4.269-0.68,8.957-2.021,14.068-4.027c8.732-3.299,16.396-8.182,22.995-14.65c6.467-6.273,11.449-13.551,14.942-21.83
		c2.029-4.811,3.449-9.754,4.3-14.824l11.758-2.607v-16.172L660.76,415.968z"/>
	<circle fill="none" stroke="#000000" stroke-width="0.78" cx="595.353" cy="421.537" r="116.963"/>
	<circle fill="none" stroke="#000000" stroke-width="0.78" cx="595.353" cy="421.537" r="102.627"/>
</g>
</svg>
