<?xml version="1.0" encoding="UTF-8" standalone="no"?>
<svg width="248px" height="261px" viewBox="0 0 248 261" version="1.1" xmlns="http://www.w3.org/2000/svg" xmlns:xlink="http://www.w3.org/1999/xlink">
    <!-- Generator: Sketch 3.6.1 (26313) - http://www.bohemiancoding.com/sketch -->
    <title>Group</title>
    <desc>Created with Sketch.</desc>
    <defs></defs>
    <g id="Page-1" stroke="none" stroke-width="1" fill="none" fill-rule="evenodd">
        <g id="favicon">
            <g id="Coin2">
                <g id="Page-1">
                    <g id="Coin2">
                        <g id="Page-1">
                            <g id="Coin">
                                <g id="Layer_1">
                                    <g id="Group">
                                        <path d="M123.960786,260.917462 C192.422438,260.917462 247.921573,202.509098 247.921573,130.458731 C247.921573,58.4083633 192.422438,0 123.960786,0 C55.4991345,0 0,58.4083633 0,130.458731 C0,202.509098 55.4991345,260.917462 123.960786,260.917462 L123.960786,260.917462 Z" id="Combined-Shape-path" fill="#242424"></path>
                                        <path d="M170.494701,125.343577 L91.766359,143.711731 L91.766359,129.496154 L169.13494,111.444769 C170.037915,115.701077 170.50106,120.210577 170.50106,124.988885 C170.50212,125.108231 170.495761,125.224231 170.494701,125.343577 L170.494701,125.343577 L170.494701,125.343577 L170.494701,125.343577 Z M162.598974,94.9303846 L91.7674188,111.457038 L91.7674188,69.7940769 L106.028479,69.7940769 C115.899726,69.7940769 123.063111,70.1911538 127.519692,70.9841923 C131.975214,71.7794615 136.687214,73.4023462 141.658872,75.8539615 C146.62735,78.3078077 151.03306,81.4465 154.872821,85.2678077 C157.890154,88.2369615 160.45494,91.4626538 162.598974,94.9303846 L162.598974,94.9303846 L162.598974,94.9303846 L162.598974,94.9303846 Z M167.891761,143.989462 C165.432957,152.306885 161.239214,159.650577 155.284034,166.002692 C152.128923,169.323192 148.651624,172.117231 144.846838,174.390385 C141.040991,176.662423 136.294017,178.540731 130.604855,180.0175 C124.913573,181.4965 116.928821,182.237115 106.645299,182.237115 L91.7674188,182.237115 L91.7674188,161.750846 L167.891761,143.989462 L167.891761,143.989462 Z M191.574701,120.425846 C191.255692,115.727846 190.560444,111.149192 189.47412,106.698808 L203.255077,103.482038 L203.255077,85.4440385 L183.319692,90.0951923 C182.797197,89.059 182.28212,88.0216923 181.710872,87.0022308 C174.991556,75.0263462 165.941675,65.9526923 154.56335,59.7846154 C143.182906,53.6165385 127.724239,50.5313846 108.18735,50.5313846 L71.2003761,50.5313846 L71.2003761,116.255423 L53.4153846,120.404654 L53.4153846,138.442654 L71.2003761,134.292308 L71.2003761,148.511231 L53.4153846,152.659346 L53.4153846,170.699577 L71.2003761,166.549231 L71.2003761,201.498692 L105.204991,201.498692 C117.955795,201.498692 126.593402,201.119462 131.118872,200.363231 C135.643282,199.604769 140.611761,198.109038 146.028547,195.871577 C155.282974,192.191923 163.405504,186.7455 170.399316,179.531192 C177.253231,172.534385 182.533299,164.416615 186.235282,155.182346 C188.385675,149.816231 189.890632,144.302885 190.792547,138.647885 L203.254017,135.740077 L203.254017,117.702077 L191.574701,120.425846 L191.574701,120.425846 L191.574701,120.425846 L191.574701,120.425846 Z" id="Shape" fill="#F5FF00"></path>
                                        <path d="M123.960786,260.917462 C192.422438,260.917462 247.921573,202.509098 247.921573,130.458731 C247.921573,58.4083633 192.422438,0 123.960786,0 C55.4991345,0 0,58.4083633 0,130.458731 C0,202.509098 55.4991345,260.917462 123.960786,260.917462 L123.960786,260.917462 Z M123.960786,244.927308 C184.031184,244.927308 232.727863,193.67798 232.727863,130.458731 C232.727863,67.2394814 184.031184,15.9901538 123.960786,15.9901538 C63.8903885,15.9901538 15.1937094,67.2394814 15.1937094,130.458731 C15.1937094,193.67798 63.8903885,244.927308 123.960786,244.927308 L123.960786,244.927308 Z" id="Combined-Shape" fill="#F5FF00"></path>
                                    </g>
                                </g>
                            </g>
                        </g>
                    </g>
                </g>
            </g>
        </g>
    </g>
</svg>