<?xml version="1.0" encoding="UTF-8" standalone="no"?>
<svg width="234px" height="234px" viewBox="0 0 234 234" version="1.1" xmlns="http://www.w3.org/2000/svg" xmlns:xlink="http://www.w3.org/1999/xlink">
    <!-- Generator: Sketch 3.6.1 (26313) - http://www.bohemiancoding.com/sketch -->
    <title>Coin2</title>
    <desc>Created with Sketch.</desc>
    <defs></defs>
    <g id="Page-1" stroke="none" stroke-width="1" fill="none" fill-rule="evenodd">
        <g id="Coin2" fill="#000000">
            <g id="Page-1">
                <g id="Coin">
                    <g id="Layer_1">
                        <g id="Group">
                            <path d="M160.87,112.377 L86.586,128.845 L86.586,116.1 L159.587,99.916 C160.439,103.732 160.876,107.775 160.876,112.059 C160.877,112.166 160.871,112.27 160.87,112.377 L160.87,112.377 L160.87,112.377 Z M153.42,85.11 L86.587,99.927 L86.587,62.574 L100.043,62.574 C109.357,62.574 116.116,62.93 120.321,63.641 C124.525,64.354 128.971,65.809 133.662,68.007 C138.35,70.207 142.507,73.021 146.13,76.447 C148.977,79.109 151.397,82.001 153.42,85.11 L153.42,85.11 L153.42,85.11 Z M158.414,129.094 C156.094,136.551 152.137,143.135 146.518,148.83 C143.541,151.807 140.26,154.312 136.67,156.35 C133.079,158.387 128.6,160.071 123.232,161.395 C117.862,162.721 110.328,163.385 100.625,163.385 L86.587,163.385 L86.587,145.018 L158.414,129.094 Z M180.76,107.968 C180.459,103.756 179.803,99.651 178.778,95.661 L191.781,92.777 L191.781,76.605 L172.971,80.775 C172.478,79.846 171.992,78.916 171.453,78.002 C165.113,67.265 156.574,59.13 145.838,53.6 C135.1,48.07 120.514,45.304 102.08,45.304 L67.181,45.304 L67.181,104.229 L50.4,107.949 L50.4,124.121 L67.181,120.4 L67.181,133.148 L50.4,136.867 L50.4,153.041 L67.181,149.32 L67.181,180.654 L99.266,180.654 C111.297,180.654 119.447,180.314 123.717,179.636 C127.986,178.956 132.674,177.615 137.785,175.609 C146.517,172.31 154.181,167.427 160.78,160.959 C167.247,154.686 172.229,147.408 175.722,139.129 C177.751,134.318 179.171,129.375 180.022,124.305 L191.78,121.698 L191.78,105.526 L180.76,107.968 L180.76,107.968 L180.76,107.968 Z" id="Shape"></path>
                            <path d="M116.963,233.926 C181.559881,233.926 233.926,181.559881 233.926,116.963 C233.926,52.3661188 181.559881,0 116.963,0 C52.3661188,0 0,52.3661188 0,116.963 C0,181.559881 52.3661188,233.926 116.963,233.926 Z M116.963,219.59 C173.642327,219.59 219.59,173.642327 219.59,116.963 C219.59,60.283673 173.642327,14.336 116.963,14.336 C60.283673,14.336 14.336,60.283673 14.336,116.963 C14.336,173.642327 60.283673,219.59 116.963,219.59 Z" id="Combined-Shape"></path>
                        </g>
                    </g>
                </g>
            </g>
        </g>
    </g>
</svg>